<svg xmlns="http://www.w3.org/2000/svg" width="17.142" height="15" viewBox="0 0 17.142 15"><g transform="translate(0 -30.522)"><path d="M126.4,137.374a4.286,4.286,0,1,0,4.286,4.286A4.291,4.291,0,0,0,126.4,137.374Zm0,7.5a3.214,3.214,0,1,1,3.214-3.214A3.218,3.218,0,0,1,126.4,144.874Z" transform="translate(-117.832 -103.102)"/><path d="M17.137,34.269a1.609,1.609,0,0,0-1.607-1.6H13.182l-.924-1.846a.536.536,0,0,0-.479-.3H5.35a.535.535,0,0,0-.479.3l-.923,1.847-2.344,0A1.609,1.609,0,0,0,0,34.274v9.641a1.609,1.609,0,0,0,1.607,1.607H15.535a1.609,1.609,0,0,0,1.607-1.608Zm-1.6,10.182H1.607a.536.536,0,0,1-.536-.536V34.274a.536.536,0,0,1,.535-.536l2.674,0a.536.536,0,0,0,.479-.3l.922-1.846h5.766l.924,1.846a.536.536,0,0,0,.479.3h2.679a.542.542,0,0,1,.542.535v9.645A.537.537,0,0,1,15.535,44.451Z" transform="translate(0 0)"/></g></svg>