<svg xmlns="http://www.w3.org/2000/svg" width="119.429" height="35.152" viewBox="0 0 119.429 35.152"><g transform="translate(-424.617 -262)"><text transform="translate(462.046 276)" fill="#fff" font-size="14" font-family="Overpass-ExtraBold, Overpass" font-weight="800"><tspan x="0" y="0" fill="#D3D3D4">FABRICA DE</tspan><tspan x="0" y="17" fill="#D3D3D4">PROYECTOS</tspan></text><g transform="translate(339.617 236.444)"><g transform="translate(85 28)"><path d="M1649.874,576.546h.109a4.364,4.364,0,0,1,0,8.727l-2.713-.006V591h2.713a9.869,9.869,0,0,0,7.161-2.954,9.6,9.6,0,0,0,2.99-7.131,10.147,10.147,0,0,0-10.152-10.121h-.109Z" transform="translate(-1633.974 -570.797)" fill="#fff"/><path d="M1601.821,570.8h-13.769v26.379h0v3.176l2.249,2.929a1.054,1.054,0,0,0,1.3,0l2.249-2.929v-4.971h0V591h5.367v-1.691h-7.057v6.068h0v3.56a1.208,1.208,0,0,1-2.416,0v-4.654h0v-21.8h10.711v2.367h-8.295v12.087l7.057.008v-1.686l-5.367-.009v-8.709h7.971Z" transform="translate(-1588.052 -570.797)" fill="#ffca05" fill-rule="evenodd"/></g></g></g></svg>