<svg xmlns="http://www.w3.org/2000/svg" width="145.295" height="41.358" viewBox="0 0 145.295 41.358">
    <g transform="translate(-50.559 -51.452)">
        <g style="isolation:isolate">
            <g style="isolation:isolate">
                <path d="M99.243,65.366v-11.9h7.973v2.177h-5.678v2.5h3.6v2.175h-3.6v5.049Z" fill="#7c7c7b"/>
                <path d="M115.291,65.366l-.918-2.465h-4.591l-.918,2.465H106.4l4.557-11.9H113.2l4.556,11.9Zm-1.666-4.555-1.173-3.1a9.76,9.76,0,0,1-.374-1.07,9.76,9.76,0,0,1-.374,1.07l-1.174,3.1Z" fill="#7c7c7b"/>
                <path d="M119.49,53.466h5.219a4.054,4.054,0,0,1,2.941.91,3.084,3.084,0,0,1,.918,2.286,2.456,2.456,0,0,1-1.445,2.431,2.6,2.6,0,0,1,1.4,1.105,3.129,3.129,0,0,1,.459,1.632,3.5,3.5,0,0,1-.987,2.49,4,4,0,0,1-3.043,1.046H119.49Zm4.947,4.676a2.23,2.23,0,0,0,1.352-.341,1.107,1.107,0,0,0,.45-.935q0-1.259-1.5-1.258h-2.958v2.534Zm.629,5.083a1.55,1.55,0,0,0,1.207-.417,1.419,1.419,0,0,0,.374-.978q0-1.547-2.057-1.547h-2.8v2.942Z" fill="#7c7c7b"/>
                <path d="M131.271,65.366v-11.9H136.8a3.9,3.9,0,0,1,3.034,1.046,4.077,4.077,0,0,1,.34,4.743,3.206,3.206,0,0,1-1.708,1.368l2.311,4.743h-2.584l-2.226-4.436h-2.4v4.436Zm2.294-6.613h3.265a1.477,1.477,0,0,0,1.19-.441,1.862,1.862,0,0,0,.008-2.228,1.473,1.473,0,0,0-1.2-.441h-3.265Z" fill="#7c7c7b"/>
                <path d="M143.153,65.366v-11.9h2.3v11.9Z" fill="#7c7c7b"/>
                <path d="M152.826,65.553a4.908,4.908,0,0,1-2.346-.535,4.018,4.018,0,0,1-1.564-1.446,6.937,6.937,0,0,1-.824-1.946,8.929,8.929,0,0,1-.264-2.21A8.209,8.209,0,0,1,148.1,57.3a7.377,7.377,0,0,1,.833-1.955,4.228,4.228,0,0,1,1.563-1.5,4.633,4.633,0,0,1,2.329-.57,4.517,4.517,0,0,1,2.695.783,4.337,4.337,0,0,1,1.555,1.9l-2.056.935a3.823,3.823,0,0,0-.969-1.071,2.115,2.115,0,0,0-1.225-.34,2.081,2.081,0,0,0-1.555.638,3.272,3.272,0,0,0-.841,1.478,7.093,7.093,0,0,0-.222,1.811,5.47,5.47,0,0,0,.672,2.737,2.122,2.122,0,0,0,1.946,1.19,2.59,2.59,0,0,0,2.159-1.53l2.109.8A4.438,4.438,0,0,1,152.826,65.553Z" fill="#7c7c7b"/>
                <path d="M166.953,65.366l-.918-2.465h-4.59l-.918,2.465h-2.465l4.556-11.9h2.244l4.556,11.9Zm-1.666-4.555-1.173-3.1a9.979,9.979,0,0,1-.374-1.07,9.551,9.551,0,0,1-.374,1.07l-1.173,3.1Z" fill="#7c7c7b"/>
                <path d="M174.893,53.466H178.9a6.556,6.556,0,0,1,2.644.5,4.48,4.48,0,0,1,1.81,1.368,6.116,6.116,0,0,1,.987,1.9,7.273,7.273,0,0,1,.322,2.185,7.77,7.77,0,0,1-.178,1.666,5.821,5.821,0,0,1-.621,1.606,5.375,5.375,0,0,1-1.088,1.377,4.776,4.776,0,0,1-1.666.944,6.855,6.855,0,0,1-2.277.357h-3.944Zm4.215,9.724a2.719,2.719,0,0,0,2.4-1.13,4.936,4.936,0,0,0,.016-5.3,2.53,2.53,0,0,0-2.226-1.113h-2.109V63.19Z" fill="#7c7c7b"/>
                <path d="M186.962,65.366v-11.9h8.126v2.177h-5.831v2.5h3.434v2.175h-3.434V63.19h6.188v2.176Z" fill="#7c7c7b"/>
            </g>
            <g style="isolation:isolate">
                <path d="M99.243,86.366v-11.9h5.1a5.09,5.09,0,0,1,1.895.323,3.162,3.162,0,0,1,1.267.867,3.673,3.673,0,0,1,.68,1.191,4.228,4.228,0,0,1,.221,1.377,3.794,3.794,0,0,1-1.028,2.617,3.88,3.88,0,0,1-3.035,1.139h-2.805v4.386Zm5.2-6.561a1.466,1.466,0,0,0,1.19-.468,1.679,1.679,0,0,0,.391-1.113,1.742,1.742,0,0,0-.374-1.106,1.444,1.444,0,0,0-1.207-.475h-2.907v3.162Z" fill="#7c7c7b"/>
                <path d="M110.105,86.366v-11.9h5.526a3.9,3.9,0,0,1,3.034,1.046,4.077,4.077,0,0,1,.34,4.743,3.207,3.207,0,0,1-1.708,1.368l2.311,4.743h-2.584L114.8,81.93h-2.4v4.436Zm2.295-6.613h3.265a1.475,1.475,0,0,0,1.189-.441,1.86,1.86,0,0,0,.009-2.228,1.473,1.473,0,0,0-1.2-.441H112.4Z" fill="#7c7c7b"/>
                <path d="M128.576,86.213a5.862,5.862,0,0,1-4.029,0,4.15,4.15,0,0,1-1.495-.96,5.723,5.723,0,0,1-1-1.4,6.343,6.343,0,0,1-.578-1.659,9.362,9.362,0,0,1,0-3.552,6.324,6.324,0,0,1,.578-1.658,5.7,5.7,0,0,1,1-1.4,4.166,4.166,0,0,1,1.495-.961,5.878,5.878,0,0,1,4.029,0,4.17,4.17,0,0,1,1.5.961,5.574,5.574,0,0,1,.987,1.4,6.564,6.564,0,0,1,.569,1.658,9.362,9.362,0,0,1,0,3.552,6.584,6.584,0,0,1-.569,1.659,5.592,5.592,0,0,1-.987,1.4A4.155,4.155,0,0,1,128.576,86.213Zm-2.014-1.853A2.434,2.434,0,0,0,127.888,84a2.569,2.569,0,0,0,.9-.97,5.1,5.1,0,0,0,.476-1.266,5.949,5.949,0,0,0,.153-1.343,6.185,6.185,0,0,0-.153-1.394,5.026,5.026,0,0,0-.468-1.25,2.456,2.456,0,0,0-.893-.943,2.7,2.7,0,0,0-2.694.009,2.459,2.459,0,0,0-.9.969,5.3,5.3,0,0,0-.468,1.257,5.924,5.924,0,0,0-.154,1.352,6.361,6.361,0,0,0,.255,1.836,3.271,3.271,0,0,0,.936,1.479A2.385,2.385,0,0,0,126.562,84.36Z" fill="#7c7c7b"/>
                <path d="M136.456,86.366v-4.64l-4.4-7.26h2.6l2.942,4.862,2.941-4.862h2.6l-4.4,7.26v4.64Z" fill="#7c7c7b"/>
                <path d="M144.411,86.366v-11.9h8.126v2.177h-5.831v2.5h3.435v2.175h-3.435V84.19H152.9v2.176Z" fill="#7c7c7b"/>
                <path d="M159.253,86.553a4.912,4.912,0,0,1-2.347-.535,4.008,4.008,0,0,1-1.563-1.446,6.878,6.878,0,0,1-.824-1.946,8.882,8.882,0,0,1-.264-2.21,8.251,8.251,0,0,1,.271-2.116,7.443,7.443,0,0,1,.833-1.955,4.234,4.234,0,0,1,1.565-1.5,4.628,4.628,0,0,1,2.329-.57,4.518,4.518,0,0,1,2.694.783,4.353,4.353,0,0,1,1.556,1.9l-2.058.935a3.806,3.806,0,0,0-.968-1.071,2.116,2.116,0,0,0-1.224-.34,2.08,2.08,0,0,0-1.556.638,3.293,3.293,0,0,0-.842,1.478,7.138,7.138,0,0,0-.22,1.811,5.469,5.469,0,0,0,.671,2.737,2.123,2.123,0,0,0,1.947,1.19,2.588,2.588,0,0,0,2.158-1.53l2.109.8A4.437,4.437,0,0,1,159.253,86.553Z" fill="#7c7c7b"/>
                <path d="M170.319,76.676v9.69h-2.295v-9.69h-3.4v-2.21h9.1v2.21Z" fill="#7c7c7b"/>
                <path d="M182.093,86.213a5.865,5.865,0,0,1-4.03,0,4.172,4.172,0,0,1-1.5-.96,5.773,5.773,0,0,1-.994-1.4,6.343,6.343,0,0,1-.578-1.659,9.362,9.362,0,0,1,0-3.552,6.323,6.323,0,0,1,.578-1.658,5.754,5.754,0,0,1,.994-1.4,4.187,4.187,0,0,1,1.5-.961,5.881,5.881,0,0,1,4.03,0,4.205,4.205,0,0,1,1.5.961,5.568,5.568,0,0,1,.985,1.4,6.527,6.527,0,0,1,.57,1.658,9.416,9.416,0,0,1,0,3.552,6.547,6.547,0,0,1-.57,1.659,5.586,5.586,0,0,1-.985,1.4A4.19,4.19,0,0,1,182.093,86.213Zm-2.015-1.853A2.434,2.434,0,0,0,181.4,84a2.554,2.554,0,0,0,.9-.97,5.057,5.057,0,0,0,.476-1.266,5.95,5.95,0,0,0,.153-1.343,6.185,6.185,0,0,0-.153-1.394,5.027,5.027,0,0,0-.468-1.25,2.461,2.461,0,0,0-.892-.943,2.7,2.7,0,0,0-2.694.009,2.464,2.464,0,0,0-.9.969,5.386,5.386,0,0,0-.468,1.257,5.981,5.981,0,0,0-.152,1.352,6.36,6.36,0,0,0,.255,1.836,3.252,3.252,0,0,0,.935,1.479A2.385,2.385,0,0,0,180.078,84.36Z" fill="#7c7c7b"/>
                <path d="M191.553,86.57a4.873,4.873,0,0,1-2.891-.867,4.65,4.65,0,0,1-1.733-2.4l2.091-.783a3.47,3.47,0,0,0,1.07,1.36,2.482,2.482,0,0,0,1.53.511,2.352,2.352,0,0,0,1.4-.374,1.242,1.242,0,0,0,.519-1.072,1.166,1.166,0,0,0-.17-.629,1.51,1.51,0,0,0-.578-.493,7.148,7.148,0,0,0-.723-.348q-.314-.127-.943-.332-.714-.239-1.079-.374a7.861,7.861,0,0,1-.961-.459,3.473,3.473,0,0,1-.9-.654,3.211,3.211,0,0,1-.553-.885,3.1,3.1,0,0,1,.842-3.569,4.33,4.33,0,0,1,2.94-.943,4.249,4.249,0,0,1,2.576.764,3.6,3.6,0,0,1,1.385,1.99l-2.057.679a2.042,2.042,0,0,0-2.04-1.258,1.978,1.978,0,0,0-1.164.3.977.977,0,0,0-.417.842.817.817,0,0,0,.34.638,2.7,2.7,0,0,0,.7.425q.359.144,1.122.4.6.2.918.323t.884.374a3.656,3.656,0,0,1,.876.528,7.748,7.748,0,0,1,.663.654,2.264,2.264,0,0,1,.5.9,3.955,3.955,0,0,1,.154,1.131,3.212,3.212,0,0,1-1.216,2.653A4.8,4.8,0,0,1,191.553,86.57Z" fill="#7c7c7b"/>
            </g>
        </g>
        <path d="M70.661,58.724H70.8a5.517,5.517,0,0,1,0,11.034l-3.43-.007V77H70.8a12.478,12.478,0,0,0,9.054-3.735,12.139,12.139,0,0,0,3.781-9.016A12.83,12.83,0,0,0,70.8,51.452h-.137Z" fill="#7c7c7b"/>
        <path d="M67.968,51.459H50.559V84.811h0v4.016l2.844,3.7a1.333,1.333,0,0,0,1.642,0l2.844-3.7V82.542h0V77.007h6.785V74.87H55.751v7.673h0v4.5a1.528,1.528,0,1,1-3.055,0h0V81.158h0V53.6H66.238v2.993H55.751V71.869l8.923.01V69.747l-6.785-.012V58.724H67.968Z" fill="#7c7c7b" fill-rule="evenodd"/>
    </g>
</svg>