<svg xmlns="http://www.w3.org/2000/svg" width="13.978" height="16" viewBox="0 0 13.978 16"><g transform="translate(0 0)"><path d="M1029.746,85.28a3.717,3.717,0,1,0-3.717-3.718A3.722,3.722,0,0,0,1029.746,85.28Zm0-6.543a2.825,2.825,0,1,1-2.825,2.825A2.829,2.829,0,0,1,1029.746,78.737Z" transform="translate(-1022.757 -77.845)"/><path d="M1028.566,89.5a7,7,0,0,0-6.989,6.989.446.446,0,0,0,.892,0,6.1,6.1,0,1,1,12.193,0,.446.446,0,0,0,.892,0A7,7,0,0,0,1028.566,89.5Z" transform="translate(-1021.577 -80.935)"/></g></svg>